
<svg width="192" height="155" viewBox="0 0 192 155" fill="none" xmlns="http://www.w3.org/2000/svg">
<rect x="70.9453" y="99.7852" width="101" height="46" rx="12" fill="#CA12C5"/>
<path d="M92.8253 115.845C94.3453 115.845 95.6586 116.132 96.7653 116.705C97.8853 117.265 98.7386 118.072 99.3253 119.125C99.9253 120.178 100.225 121.418 100.225 122.845C100.225 124.272 99.9253 125.512 99.3253 126.565C98.7386 127.605 97.8853 128.405 96.7653 128.965C95.6586 129.512 94.3453 129.785 92.8253 129.785H88.4853V115.845H92.8253ZM92.8253 128.285C94.6253 128.285 95.9986 127.812 96.9453 126.865C97.892 125.905 98.3653 124.565 98.3653 122.845C98.3653 121.112 97.8853 119.758 96.9253 118.785C95.9786 117.812 94.612 117.325 92.8253 117.325H90.3053V128.285H92.8253ZM112.626 123.885C112.626 124.232 112.606 124.598 112.566 124.985H103.806C103.873 126.065 104.239 126.912 104.906 127.525C105.586 128.125 106.406 128.425 107.366 128.425C108.153 128.425 108.806 128.245 109.326 127.885C109.859 127.512 110.233 127.018 110.446 126.405H112.406C112.113 127.458 111.526 128.318 110.646 128.985C109.766 129.638 108.673 129.965 107.366 129.965C106.326 129.965 105.393 129.732 104.566 129.265C103.753 128.798 103.113 128.138 102.646 127.285C102.179 126.418 101.946 125.418 101.946 124.285C101.946 123.152 102.173 122.158 102.626 121.305C103.079 120.452 103.713 119.798 104.526 119.345C105.353 118.878 106.299 118.645 107.366 118.645C108.406 118.645 109.326 118.872 110.126 119.325C110.926 119.778 111.539 120.405 111.966 121.205C112.406 121.992 112.626 122.885 112.626 123.885ZM110.746 123.505C110.746 122.812 110.593 122.218 110.286 121.725C109.979 121.218 109.559 120.838 109.026 120.585C108.506 120.318 107.926 120.185 107.286 120.185C106.366 120.185 105.579 120.478 104.926 121.065C104.286 121.652 103.919 122.465 103.826 123.505H110.746ZM118.908 129.965C118.068 129.965 117.315 129.825 116.648 129.545C115.982 129.252 115.455 128.852 115.068 128.345C114.682 127.825 114.468 127.232 114.428 126.565H116.308C116.362 127.112 116.615 127.558 117.068 127.905C117.535 128.252 118.142 128.425 118.888 128.425C119.582 128.425 120.128 128.272 120.528 127.965C120.928 127.658 121.128 127.272 121.128 126.805C121.128 126.325 120.915 125.972 120.488 125.745C120.062 125.505 119.402 125.272 118.508 125.045C117.695 124.832 117.028 124.618 116.508 124.405C116.002 124.178 115.562 123.852 115.188 123.425C114.828 122.985 114.648 122.412 114.648 121.705C114.648 121.145 114.815 120.632 115.148 120.165C115.482 119.698 115.955 119.332 116.568 119.065C117.182 118.785 117.882 118.645 118.668 118.645C119.882 118.645 120.862 118.952 121.608 119.565C122.355 120.178 122.755 121.018 122.808 122.085H120.988C120.948 121.512 120.715 121.052 120.288 120.705C119.875 120.358 119.315 120.185 118.608 120.185C117.955 120.185 117.435 120.325 117.048 120.605C116.662 120.885 116.468 121.252 116.468 121.705C116.468 122.065 116.582 122.365 116.808 122.605C117.048 122.832 117.342 123.018 117.688 123.165C118.048 123.298 118.542 123.452 119.168 123.625C119.955 123.838 120.595 124.052 121.088 124.265C121.582 124.465 122.002 124.772 122.348 125.185C122.708 125.598 122.895 126.138 122.908 126.805C122.908 127.405 122.742 127.945 122.408 128.425C122.075 128.905 121.602 129.285 120.988 129.565C120.388 129.832 119.695 129.965 118.908 129.965ZM126.418 117.045C126.071 117.045 125.778 116.925 125.538 116.685C125.298 116.445 125.178 116.152 125.178 115.805C125.178 115.458 125.298 115.165 125.538 114.925C125.778 114.685 126.071 114.565 126.418 114.565C126.751 114.565 127.031 114.685 127.258 114.925C127.498 115.165 127.618 115.458 127.618 115.805C127.618 116.152 127.498 116.445 127.258 116.685C127.031 116.925 126.751 117.045 126.418 117.045ZM127.298 118.825V129.785H125.478V118.825H127.298ZM134.919 118.645C135.866 118.645 136.693 118.852 137.399 119.265C138.119 119.678 138.653 120.198 138.999 120.825V118.825H140.839V130.025C140.839 131.025 140.626 131.912 140.199 132.685C139.773 133.472 139.159 134.085 138.359 134.525C137.573 134.965 136.653 135.185 135.599 135.185C134.159 135.185 132.959 134.845 131.999 134.165C131.039 133.485 130.473 132.558 130.299 131.385H132.099C132.299 132.052 132.713 132.585 133.339 132.985C133.966 133.398 134.719 133.605 135.599 133.605C136.599 133.605 137.413 133.292 138.039 132.665C138.679 132.038 138.999 131.158 138.999 130.025V127.725C138.639 128.365 138.106 128.898 137.399 129.325C136.693 129.752 135.866 129.965 134.919 129.965C133.946 129.965 133.059 129.725 132.259 129.245C131.473 128.765 130.853 128.092 130.399 127.225C129.946 126.358 129.719 125.372 129.719 124.265C129.719 123.145 129.946 122.165 130.399 121.325C130.853 120.472 131.473 119.812 132.259 119.345C133.059 118.878 133.946 118.645 134.919 118.645ZM138.999 124.285C138.999 123.458 138.833 122.738 138.499 122.125C138.166 121.512 137.713 121.045 137.139 120.725C136.579 120.392 135.959 120.225 135.279 120.225C134.599 120.225 133.979 120.385 133.419 120.705C132.859 121.025 132.413 121.492 132.079 122.105C131.746 122.718 131.579 123.438 131.579 124.265C131.579 125.105 131.746 125.838 132.079 126.465C132.413 127.078 132.859 127.552 133.419 127.885C133.979 128.205 134.599 128.365 135.279 128.365C135.959 128.365 136.579 128.205 137.139 127.885C137.713 127.552 138.166 127.078 138.499 126.465C138.833 125.838 138.999 125.112 138.999 124.285ZM149.255 118.625C150.588 118.625 151.668 119.032 152.495 119.845C153.322 120.645 153.735 121.805 153.735 123.325V129.785H151.935V123.585C151.935 122.492 151.662 121.658 151.115 121.085C150.568 120.498 149.822 120.205 148.875 120.205C147.915 120.205 147.148 120.505 146.575 121.105C146.015 121.705 145.735 122.578 145.735 123.725V129.785H143.915V118.825H145.735V120.385C146.095 119.825 146.582 119.392 147.195 119.085C147.822 118.778 148.508 118.625 149.255 118.625Z" fill="white"/>
<path d="M55.8625 154.326L66.0743 136.223L63.643 149.771L76.6461 154.118L55.8625 154.326Z" fill="#CA12C5"/>
<rect x="18.9453" y="16.7852" width="167" height="46" rx="12" fill="#A31BF1"/>
<path d="M40.8253 32.8452C42.3453 32.8452 43.6586 33.1318 44.7653 33.7052C45.8853 34.2652 46.7386 35.0718 47.3253 36.1252C47.9253 37.1785 48.2253 38.4185 48.2253 39.8452C48.2253 41.2718 47.9253 42.5118 47.3253 43.5652C46.7386 44.6052 45.8853 45.4052 44.7653 45.9652C43.6586 46.5118 42.3453 46.7852 40.8253 46.7852H36.4853V32.8452H40.8253ZM40.8253 45.2852C42.6253 45.2852 43.9986 44.8118 44.9453 43.8652C45.892 42.9052 46.3653 41.5652 46.3653 39.8452C46.3653 38.1118 45.8853 36.7585 44.9253 35.7852C43.9786 34.8118 42.612 34.3252 40.8253 34.3252H38.3053V45.2852H40.8253ZM60.6259 40.8852C60.6259 41.2318 60.6059 41.5985 60.5659 41.9852H51.8059C51.8726 43.0652 52.2393 43.9118 52.9059 44.5252C53.5859 45.1252 54.4059 45.4252 55.3659 45.4252C56.1526 45.4252 56.8059 45.2452 57.3259 44.8852C57.8593 44.5118 58.2326 44.0185 58.4459 43.4052H60.4059C60.1126 44.4585 59.5259 45.3185 58.6459 45.9852C57.7659 46.6385 56.6726 46.9652 55.3659 46.9652C54.3259 46.9652 53.3926 46.7318 52.5659 46.2652C51.7526 45.7985 51.1126 45.1385 50.6459 44.2852C50.1793 43.4185 49.9459 42.4185 49.9459 41.2852C49.9459 40.1518 50.1726 39.1585 50.6259 38.3052C51.0793 37.4518 51.7126 36.7985 52.5259 36.3452C53.3526 35.8785 54.2993 35.6452 55.3659 35.6452C56.4059 35.6452 57.3259 35.8718 58.1259 36.3252C58.9259 36.7785 59.5393 37.4052 59.9659 38.2052C60.4059 38.9918 60.6259 39.8852 60.6259 40.8852ZM58.7459 40.5052C58.7459 39.8118 58.5926 39.2185 58.2859 38.7252C57.9793 38.2185 57.5593 37.8385 57.0259 37.5852C56.5059 37.3185 55.9259 37.1852 55.2859 37.1852C54.3659 37.1852 53.5793 37.4785 52.9259 38.0652C52.2859 38.6518 51.9193 39.4652 51.8259 40.5052H58.7459ZM67.1083 45.1052L70.5083 35.8252H72.4483L68.1483 46.7852H66.0283L61.7283 35.8252H63.6883L67.1083 45.1052ZM84.2392 40.8852C84.2392 41.2318 84.2192 41.5985 84.1792 41.9852H75.4192C75.4859 43.0652 75.8526 43.9118 76.5192 44.5252C77.1992 45.1252 78.0192 45.4252 78.9792 45.4252C79.7659 45.4252 80.4192 45.2452 80.9392 44.8852C81.4726 44.5118 81.8459 44.0185 82.0592 43.4052H84.0192C83.7259 44.4585 83.1392 45.3185 82.2592 45.9852C81.3792 46.6385 80.2859 46.9652 78.9792 46.9652C77.9392 46.9652 77.0059 46.7318 76.1792 46.2652C75.3659 45.7985 74.7259 45.1385 74.2592 44.2852C73.7926 43.4185 73.5592 42.4185 73.5592 41.2852C73.5592 40.1518 73.7859 39.1585 74.2392 38.3052C74.6926 37.4518 75.3259 36.7985 76.1392 36.3452C76.9659 35.8785 77.9126 35.6452 78.9792 35.6452C80.0192 35.6452 80.9392 35.8718 81.7392 36.3252C82.5392 36.7785 83.1526 37.4052 83.5792 38.2052C84.0192 38.9918 84.2392 39.8852 84.2392 40.8852ZM82.3592 40.5052C82.3592 39.8118 82.2059 39.2185 81.8992 38.7252C81.5926 38.2185 81.1726 37.8385 80.6392 37.5852C80.1192 37.3185 79.5392 37.1852 78.8992 37.1852C77.9792 37.1852 77.1926 37.4785 76.5392 38.0652C75.8992 38.6518 75.5326 39.4652 75.4392 40.5052H82.3592ZM88.4616 31.9852V46.7852H86.6416V31.9852H88.4616ZM96.3434 46.9652C95.3168 46.9652 94.3834 46.7318 93.5434 46.2652C92.7168 45.7985 92.0634 45.1385 91.5834 44.2852C91.1168 43.4185 90.8834 42.4185 90.8834 41.2852C90.8834 40.1652 91.1234 39.1785 91.6034 38.3252C92.0968 37.4585 92.7634 36.7985 93.6034 36.3452C94.4434 35.8785 95.3834 35.6452 96.4234 35.6452C97.4634 35.6452 98.4034 35.8785 99.2434 36.3452C100.083 36.7985 100.743 37.4518 101.223 38.3052C101.717 39.1585 101.963 40.1518 101.963 41.2852C101.963 42.4185 101.71 43.4185 101.203 44.2852C100.71 45.1385 100.037 45.7985 99.1834 46.2652C98.3301 46.7318 97.3834 46.9652 96.3434 46.9652ZM96.3434 45.3652C96.9968 45.3652 97.6101 45.2118 98.1834 44.9052C98.7568 44.5985 99.2168 44.1385 99.5634 43.5252C99.9234 42.9118 100.103 42.1652 100.103 41.2852C100.103 40.4052 99.9301 39.6585 99.5834 39.0452C99.2368 38.4318 98.7834 37.9785 98.2234 37.6852C97.6634 37.3785 97.0568 37.2252 96.4034 37.2252C95.7368 37.2252 95.1234 37.3785 94.5634 37.6852C94.0168 37.9785 93.5768 38.4318 93.2434 39.0452C92.9101 39.6585 92.7434 40.4052 92.7434 41.2852C92.7434 42.1785 92.9034 42.9318 93.2234 43.5452C93.5568 44.1585 93.9968 44.6185 94.5434 44.9252C95.0901 45.2185 95.6901 45.3652 96.3434 45.3652ZM106.176 37.8452C106.536 37.2185 107.07 36.6985 107.776 36.2852C108.496 35.8585 109.33 35.6452 110.276 35.6452C111.25 35.6452 112.13 35.8785 112.916 36.3452C113.716 36.8118 114.343 37.4718 114.796 38.3252C115.25 39.1652 115.476 40.1452 115.476 41.2652C115.476 42.3718 115.25 43.3585 114.796 44.2252C114.343 45.0918 113.716 45.7652 112.916 46.2452C112.13 46.7252 111.25 46.9652 110.276 46.9652C109.343 46.9652 108.516 46.7585 107.796 46.3452C107.09 45.9185 106.55 45.3918 106.176 44.7652V51.9852H104.356V35.8252H106.176V37.8452ZM113.616 41.2652C113.616 40.4385 113.45 39.7185 113.116 39.1052C112.783 38.4918 112.33 38.0252 111.756 37.7052C111.196 37.3852 110.576 37.2252 109.896 37.2252C109.23 37.2252 108.61 37.3918 108.036 37.7252C107.476 38.0452 107.023 38.5185 106.676 39.1452C106.343 39.7585 106.176 40.4718 106.176 41.2852C106.176 42.1118 106.343 42.8385 106.676 43.4652C107.023 44.0785 107.476 44.5518 108.036 44.8852C108.61 45.2052 109.23 45.3652 109.896 45.3652C110.576 45.3652 111.196 45.2052 111.756 44.8852C112.33 44.5518 112.783 44.0785 113.116 43.4652C113.45 42.8385 113.616 42.1052 113.616 41.2652ZM131.052 35.6252C131.905 35.6252 132.665 35.8052 133.332 36.1652C133.999 36.5118 134.525 37.0385 134.912 37.7452C135.299 38.4518 135.492 39.3118 135.492 40.3252V46.7852H133.692V40.5852C133.692 39.4918 133.419 38.6585 132.872 38.0852C132.339 37.4985 131.612 37.2052 130.692 37.2052C129.745 37.2052 128.992 37.5118 128.432 38.1252C127.872 38.7252 127.592 39.5985 127.592 40.7452V46.7852H125.792V40.5852C125.792 39.4918 125.519 38.6585 124.972 38.0852C124.439 37.4985 123.712 37.2052 122.792 37.2052C121.845 37.2052 121.092 37.5118 120.532 38.1252C119.972 38.7252 119.692 39.5985 119.692 40.7452V46.7852H117.872V35.8252H119.692V37.4052C120.052 36.8318 120.532 36.3918 121.132 36.0852C121.745 35.7785 122.419 35.6252 123.152 35.6252C124.072 35.6252 124.885 35.8318 125.592 36.2452C126.299 36.6585 126.825 37.2652 127.172 38.0652C127.479 37.2918 127.985 36.6918 128.692 36.2652C129.399 35.8385 130.185 35.6252 131.052 35.6252ZM148.478 40.8852C148.478 41.2318 148.458 41.5985 148.418 41.9852H139.658C139.724 43.0652 140.091 43.9118 140.758 44.5252C141.438 45.1252 142.258 45.4252 143.218 45.4252C144.004 45.4252 144.658 45.2452 145.178 44.8852C145.711 44.5118 146.084 44.0185 146.298 43.4052H148.258C147.964 44.4585 147.378 45.3185 146.498 45.9852C145.618 46.6385 144.524 46.9652 143.218 46.9652C142.178 46.9652 141.244 46.7318 140.418 46.2652C139.604 45.7985 138.964 45.1385 138.498 44.2852C138.031 43.4185 137.798 42.4185 137.798 41.2852C137.798 40.1518 138.024 39.1585 138.478 38.3052C138.931 37.4518 139.564 36.7985 140.378 36.3452C141.204 35.8785 142.151 35.6452 143.218 35.6452C144.258 35.6452 145.178 35.8718 145.978 36.3252C146.778 36.7785 147.391 37.4052 147.818 38.2052C148.258 38.9918 148.478 39.8852 148.478 40.8852ZM146.598 40.5052C146.598 39.8118 146.444 39.2185 146.138 38.7252C145.831 38.2185 145.411 37.8385 144.878 37.5852C144.358 37.3185 143.778 37.1852 143.138 37.1852C142.218 37.1852 141.431 37.4785 140.778 38.0652C140.138 38.6518 139.771 39.4652 139.678 40.5052H146.598ZM156.22 35.6252C157.553 35.6252 158.633 36.0318 159.46 36.8452C160.287 37.6452 160.7 38.8052 160.7 40.3252V46.7852H158.9V40.5852C158.9 39.4918 158.627 38.6585 158.08 38.0852C157.533 37.4985 156.787 37.2052 155.84 37.2052C154.88 37.2052 154.113 37.5052 153.54 38.1052C152.98 38.7052 152.7 39.5785 152.7 40.7252V46.7852H150.88V35.8252H152.7V37.3852C153.06 36.8252 153.547 36.3918 154.16 36.0852C154.787 35.7785 155.473 35.6252 156.22 35.6252ZM165.893 37.3252V43.7852C165.893 44.3185 166.006 44.6985 166.233 44.9252C166.459 45.1385 166.853 45.2452 167.413 45.2452H168.753V46.7852H167.113C166.099 46.7852 165.339 46.5518 164.833 46.0852C164.326 45.6185 164.073 44.8518 164.073 43.7852V37.3252H162.653V35.8252H164.073V33.0652H165.893V35.8252H168.753V37.3252H165.893Z" fill="white"/>
<path d="M6.80947 7.85062L27.2165 11.7944L13.5963 13.7852L13.5975 27.4955L6.80947 7.85062Z" fill="#A31BF1"/>
</svg>
