
<svg width="141" height="71" viewBox="0 0 141 71" fill="none" xmlns="http://www.w3.org/2000/svg">
<rect x="18.9453" y="16.7852" width="103" height="46" rx="12" fill="#A31BF1"/>
<path d="M50.6253 32.9452V46.7852H48.8053V36.4652L44.2053 46.7852H42.9253L38.3053 36.4452V46.7852H36.4853V32.9452H38.4453L43.5653 44.3852L48.6853 32.9452H50.6253ZM58.4919 46.9652C57.4652 46.9652 56.5319 46.7318 55.6919 46.2652C54.8652 45.7985 54.2119 45.1385 53.7319 44.2852C53.2652 43.4185 53.0319 42.4185 53.0319 41.2852C53.0319 40.1652 53.2719 39.1785 53.7519 38.3252C54.2452 37.4585 54.9119 36.7985 55.7519 36.3452C56.5919 35.8785 57.5319 35.6452 58.5719 35.6452C59.6119 35.6452 60.5519 35.8785 61.3919 36.3452C62.2319 36.7985 62.8919 37.4518 63.3719 38.3052C63.8652 39.1585 64.1119 40.1518 64.1119 41.2852C64.1119 42.4185 63.8585 43.4185 63.3519 44.2852C62.8585 45.1385 62.1852 45.7985 61.3319 46.2652C60.4785 46.7318 59.5319 46.9652 58.4919 46.9652ZM58.4919 45.3652C59.1452 45.3652 59.7585 45.2118 60.3319 44.9052C60.9052 44.5985 61.3652 44.1385 61.7119 43.5252C62.0719 42.9118 62.2519 42.1652 62.2519 41.2852C62.2519 40.4052 62.0785 39.6585 61.7319 39.0452C61.3852 38.4318 60.9319 37.9785 60.3719 37.6852C59.8119 37.3785 59.2052 37.2252 58.5519 37.2252C57.8852 37.2252 57.2719 37.3785 56.7119 37.6852C56.1652 37.9785 55.7252 38.4318 55.3919 39.0452C55.0585 39.6585 54.8919 40.4052 54.8919 41.2852C54.8919 42.1785 55.0519 42.9318 55.3719 43.5452C55.7052 44.1585 56.1452 44.6185 56.6919 44.9252C57.2385 45.2185 57.8385 45.3652 58.4919 45.3652ZM71.8448 35.6252C73.1782 35.6252 74.2582 36.0318 75.0848 36.8452C75.9115 37.6452 76.3248 38.8052 76.3248 40.3252V46.7852H74.5248V40.5852C74.5248 39.4918 74.2515 38.6585 73.7048 38.0852C73.1582 37.4985 72.4115 37.2052 71.4648 37.2052C70.5048 37.2052 69.7382 37.5052 69.1648 38.1052C68.6048 38.7052 68.3248 39.5785 68.3248 40.7252V46.7852H66.5048V35.8252H68.3248V37.3852C68.6848 36.8252 69.1715 36.3918 69.7848 36.0852C70.4115 35.7785 71.0982 35.6252 71.8448 35.6252ZM80.2378 34.0452C79.8911 34.0452 79.5978 33.9252 79.3578 33.6852C79.1178 33.4452 78.9978 33.1518 78.9978 32.8052C78.9978 32.4585 79.1178 32.1652 79.3578 31.9252C79.5978 31.6852 79.8911 31.5652 80.2378 31.5652C80.5711 31.5652 80.8511 31.6852 81.0778 31.9252C81.3178 32.1652 81.4378 32.4585 81.4378 32.8052C81.4378 33.1518 81.3178 33.4452 81.0778 33.6852C80.8511 33.9252 80.5711 34.0452 80.2378 34.0452ZM81.1178 35.8252V46.7852H79.2978V35.8252H81.1178ZM88.0997 46.9652C87.2597 46.9652 86.5064 46.8252 85.8397 46.5452C85.173 46.2518 84.6464 45.8518 84.2597 45.3452C83.873 44.8252 83.6597 44.2318 83.6197 43.5652H85.4997C85.553 44.1118 85.8064 44.5585 86.2597 44.9052C86.7264 45.2518 87.333 45.4252 88.0797 45.4252C88.773 45.4252 89.3197 45.2718 89.7197 44.9652C90.1197 44.6585 90.3197 44.2718 90.3197 43.8052C90.3197 43.3252 90.1064 42.9718 89.6797 42.7452C89.253 42.5052 88.593 42.2718 87.6997 42.0452C86.8864 41.8318 86.2197 41.6185 85.6997 41.4052C85.193 41.1785 84.753 40.8518 84.3797 40.4252C84.0197 39.9852 83.8397 39.4118 83.8397 38.7052C83.8397 38.1452 84.0064 37.6318 84.3397 37.1652C84.673 36.6985 85.1464 36.3318 85.7597 36.0652C86.373 35.7852 87.073 35.6452 87.8597 35.6452C89.073 35.6452 90.053 35.9518 90.7997 36.5652C91.5464 37.1785 91.9464 38.0185 91.9997 39.0852H90.1797C90.1397 38.5118 89.9064 38.0518 89.4797 37.7052C89.0664 37.3585 88.5064 37.1852 87.7997 37.1852C87.1464 37.1852 86.6264 37.3252 86.2397 37.6052C85.853 37.8852 85.6597 38.2518 85.6597 38.7052C85.6597 39.0652 85.773 39.3652 85.9997 39.6052C86.2397 39.8318 86.533 40.0185 86.8797 40.1652C87.2397 40.2985 87.733 40.4518 88.3597 40.6252C89.1464 40.8385 89.7864 41.0518 90.2797 41.2652C90.773 41.4652 91.193 41.7718 91.5397 42.1852C91.8997 42.5985 92.0864 43.1385 92.0997 43.8052C92.0997 44.4052 91.933 44.9452 91.5997 45.4252C91.2664 45.9052 90.793 46.2852 90.1797 46.5652C89.5797 46.8318 88.8864 46.9652 88.0997 46.9652ZM100.109 35.6252C100.936 35.6252 101.682 35.8052 102.349 36.1652C103.016 36.5118 103.536 37.0385 103.909 37.7452C104.296 38.4518 104.489 39.3118 104.489 40.3252V46.7852H102.689V40.5852C102.689 39.4918 102.416 38.6585 101.869 38.0852C101.322 37.4985 100.576 37.2052 99.6289 37.2052C98.6689 37.2052 97.9022 37.5052 97.3289 38.1052C96.7689 38.7052 96.4889 39.5785 96.4889 40.7252V46.7852H94.6689V31.9852H96.4889V37.3852C96.8489 36.8252 97.3422 36.3918 97.9689 36.0852C98.6089 35.7785 99.3222 35.6252 100.109 35.6252Z" fill="white"/>
<path d="M6.80947 7.85062L27.2165 11.7944L13.5963 13.7852L13.5975 27.4955L6.80947 7.85062Z" fill="#A31BF1"/>
</svg>
