
<svg width="141" height="72" viewBox="0 0 141 72" fill="none" xmlns="http://www.w3.org/2000/svg">
<rect x="18.9453" y="16.7852" width="102" height="46" rx="12" fill="#CA12C5"/>
<path d="M40.9053 46.9252C39.9853 46.9252 39.1586 46.7652 38.4253 46.4452C37.7053 46.1118 37.1386 45.6585 36.7253 45.0852C36.312 44.4985 36.0986 43.8252 36.0853 43.0652H38.0253C38.092 43.7185 38.3586 44.2718 38.8253 44.7252C39.3053 45.1652 39.9986 45.3852 40.9053 45.3852C41.772 45.3852 42.452 45.1718 42.9453 44.7452C43.452 44.3052 43.7053 43.7452 43.7053 43.0652C43.7053 42.5318 43.5586 42.0985 43.2653 41.7652C42.972 41.4318 42.6053 41.1785 42.1653 41.0052C41.7253 40.8318 41.132 40.6452 40.3853 40.4452C39.4653 40.2052 38.7253 39.9652 38.1653 39.7252C37.6186 39.4852 37.1453 39.1118 36.7453 38.6052C36.3586 38.0852 36.1653 37.3918 36.1653 36.5252C36.1653 35.7652 36.3586 35.0918 36.7453 34.5052C37.132 33.9185 37.672 33.4652 38.3653 33.1452C39.072 32.8252 39.8786 32.6652 40.7853 32.6652C42.092 32.6652 43.1586 32.9918 43.9853 33.6452C44.8253 34.2985 45.2986 35.1652 45.4053 36.2452H43.4053C43.3386 35.7118 43.0586 35.2452 42.5653 34.8452C42.072 34.4318 41.4186 34.2252 40.6053 34.2252C39.8453 34.2252 39.2253 34.4252 38.7453 34.8252C38.2653 35.2118 38.0253 35.7585 38.0253 36.4652C38.0253 36.9718 38.1653 37.3852 38.4453 37.7052C38.7386 38.0252 39.092 38.2718 39.5053 38.4452C39.932 38.6052 40.5253 38.7918 41.2853 39.0052C42.2053 39.2585 42.9453 39.5118 43.5053 39.7652C44.0653 40.0052 44.5453 40.3852 44.9453 40.9052C45.3453 41.4118 45.5453 42.1052 45.5453 42.9852C45.5453 43.6652 45.3653 44.3052 45.0053 44.9052C44.6453 45.5052 44.112 45.9918 43.4053 46.3652C42.6986 46.7385 41.8653 46.9252 40.9053 46.9252ZM53.6636 35.6252C54.4903 35.6252 55.2369 35.8052 55.9036 36.1652C56.5703 36.5118 57.0903 37.0385 57.4636 37.7452C57.8503 38.4518 58.0436 39.3118 58.0436 40.3252V46.7852H56.2436V40.5852C56.2436 39.4918 55.9703 38.6585 55.4236 38.0852C54.8769 37.4985 54.1303 37.2052 53.1836 37.2052C52.2236 37.2052 51.4569 37.5052 50.8836 38.1052C50.3236 38.7052 50.0436 39.5785 50.0436 40.7252V46.7852H48.2236V31.9852H50.0436V37.3852C50.4036 36.8252 50.8969 36.3918 51.5236 36.0852C52.1636 35.7785 52.8769 35.6252 53.6636 35.6252ZM62.8366 37.6052C63.1566 36.9785 63.6099 36.4918 64.1966 36.1452C64.7966 35.7985 65.5232 35.6252 66.3766 35.6252V37.5052H65.8966C63.8566 37.5052 62.8366 38.6118 62.8366 40.8252V46.7852H61.0166V35.8252H62.8366V37.6052ZM78.4775 40.8852C78.4775 41.2318 78.4575 41.5985 78.4175 41.9852H69.6575C69.7242 43.0652 70.0908 43.9118 70.7575 44.5252C71.4375 45.1252 72.2575 45.4252 73.2175 45.4252C74.0042 45.4252 74.6575 45.2452 75.1775 44.8852C75.7108 44.5118 76.0842 44.0185 76.2975 43.4052H78.2575C77.9642 44.4585 77.3775 45.3185 76.4975 45.9852C75.6175 46.6385 74.5242 46.9652 73.2175 46.9652C72.1775 46.9652 71.2442 46.7318 70.4175 46.2652C69.6042 45.7985 68.9642 45.1385 68.4975 44.2852C68.0308 43.4185 67.7975 42.4185 67.7975 41.2852C67.7975 40.1518 68.0242 39.1585 68.4775 38.3052C68.9308 37.4518 69.5642 36.7985 70.3775 36.3452C71.2042 35.8785 72.1508 35.6452 73.2175 35.6452C74.2575 35.6452 75.1775 35.8718 75.9775 36.3252C76.7775 36.7785 77.3908 37.4052 77.8175 38.2052C78.2575 38.9918 78.4775 39.8852 78.4775 40.8852ZM76.5975 40.5052C76.5975 39.8118 76.4442 39.2185 76.1375 38.7252C75.8308 38.2185 75.4108 37.8385 74.8775 37.5852C74.3575 37.3185 73.7775 37.1852 73.1375 37.1852C72.2175 37.1852 71.4308 37.4785 70.7775 38.0652C70.1375 38.6518 69.7708 39.4652 69.6775 40.5052H76.5975ZM90.3198 35.8252L83.7198 51.9452H81.8398L83.9998 46.6652L79.5798 35.8252H81.5998L85.0398 44.7052L88.4398 35.8252H90.3198ZM91.4694 41.2652C91.4694 40.1452 91.696 39.1652 92.1494 38.3252C92.6027 37.4718 93.2227 36.8118 94.0094 36.3452C94.8094 35.8785 95.696 35.6452 96.6694 35.6452C97.6294 35.6452 98.4627 35.8518 99.1694 36.2652C99.876 36.6785 100.403 37.1985 100.749 37.8252V35.8252H102.589V46.7852H100.749V44.7452C100.389 45.3852 99.8494 45.9185 99.1294 46.3452C98.4227 46.7585 97.596 46.9652 96.6494 46.9652C95.676 46.9652 94.796 46.7252 94.0094 46.2452C93.2227 45.7652 92.6027 45.0918 92.1494 44.2252C91.696 43.3585 91.4694 42.3718 91.4694 41.2652ZM100.749 41.2852C100.749 40.4585 100.583 39.7385 100.249 39.1252C99.916 38.5118 99.4627 38.0452 98.8894 37.7252C98.3294 37.3918 97.7094 37.2252 97.0294 37.2252C96.3494 37.2252 95.7294 37.3852 95.1694 37.7052C94.6094 38.0252 94.1627 38.4918 93.8294 39.1052C93.496 39.7185 93.3294 40.4385 93.3294 41.2652C93.3294 42.1052 93.496 42.8385 93.8294 43.4652C94.1627 44.0785 94.6094 44.5518 95.1694 44.8852C95.7294 45.2052 96.3494 45.3652 97.0294 45.3652C97.7094 45.3652 98.3294 45.2052 98.8894 44.8852C99.4627 44.5518 99.916 44.0785 100.249 43.4652C100.583 42.8385 100.749 42.1118 100.749 41.2852Z" fill="white"/>
<path d="M3.86254 71.3259L14.0743 53.2228L11.643 66.7713L24.6461 71.118L3.86254 71.3259Z" fill="#CA12C5"/>
</svg>
