
<svg width="116" height="71" viewBox="0 0 116 71" fill="none" xmlns="http://www.w3.org/2000/svg">
<rect x="18.9453" y="16.7852" width="78" height="46" rx="12" fill="#1649FF"/>
<path d="M40.9053 46.9252C39.9853 46.9252 39.1586 46.7652 38.4253 46.4452C37.7053 46.1118 37.1386 45.6585 36.7253 45.0852C36.312 44.4985 36.0986 43.8252 36.0853 43.0652H38.0253C38.092 43.7185 38.3586 44.2718 38.8253 44.7252C39.3053 45.1652 39.9986 45.3852 40.9053 45.3852C41.772 45.3852 42.452 45.1718 42.9453 44.7452C43.452 44.3052 43.7053 43.7452 43.7053 43.0652C43.7053 42.5318 43.5586 42.0985 43.2653 41.7652C42.972 41.4318 42.6053 41.1785 42.1653 41.0052C41.7253 40.8318 41.132 40.6452 40.3853 40.4452C39.4653 40.2052 38.7253 39.9652 38.1653 39.7252C37.6186 39.4852 37.1453 39.1118 36.7453 38.6052C36.3586 38.0852 36.1653 37.3918 36.1653 36.5252C36.1653 35.7652 36.3586 35.0918 36.7453 34.5052C37.132 33.9185 37.672 33.4652 38.3653 33.1452C39.072 32.8252 39.8786 32.6652 40.7853 32.6652C42.092 32.6652 43.1586 32.9918 43.9853 33.6452C44.8253 34.2985 45.2986 35.1652 45.4053 36.2452H43.4053C43.3386 35.7118 43.0586 35.2452 42.5653 34.8452C42.072 34.4318 41.4186 34.2252 40.6053 34.2252C39.8453 34.2252 39.2253 34.4252 38.7453 34.8252C38.2653 35.2118 38.0253 35.7585 38.0253 36.4652C38.0253 36.9718 38.1653 37.3852 38.4453 37.7052C38.7386 38.0252 39.092 38.2718 39.5053 38.4452C39.932 38.6052 40.5253 38.7918 41.2853 39.0052C42.2053 39.2585 42.9453 39.5118 43.5053 39.7652C44.0653 40.0052 44.5453 40.3852 44.9453 40.9052C45.3453 41.4118 45.5453 42.1052 45.5453 42.9852C45.5453 43.6652 45.3653 44.3052 45.0053 44.9052C44.6453 45.5052 44.112 45.9918 43.4053 46.3652C42.6986 46.7385 41.8653 46.9252 40.9053 46.9252ZM47.5436 41.2652C47.5436 40.1452 47.7703 39.1652 48.2236 38.3252C48.6769 37.4718 49.2969 36.8118 50.0836 36.3452C50.8836 35.8785 51.7703 35.6452 52.7436 35.6452C53.7036 35.6452 54.5369 35.8518 55.2436 36.2652C55.9503 36.6785 56.4769 37.1985 56.8236 37.8252V35.8252H58.6636V46.7852H56.8236V44.7452C56.4636 45.3852 55.9236 45.9185 55.2036 46.3452C54.4969 46.7585 53.6703 46.9652 52.7236 46.9652C51.7503 46.9652 50.8703 46.7252 50.0836 46.2452C49.2969 45.7652 48.6769 45.0918 48.2236 44.2252C47.7703 43.3585 47.5436 42.3718 47.5436 41.2652ZM56.8236 41.2852C56.8236 40.4585 56.6569 39.7385 56.3236 39.1252C55.9903 38.5118 55.5369 38.0452 54.9636 37.7252C54.4036 37.3918 53.7836 37.2252 53.1036 37.2252C52.4236 37.2252 51.8036 37.3852 51.2436 37.7052C50.6836 38.0252 50.2369 38.4918 49.9036 39.1052C49.5703 39.7185 49.4036 40.4385 49.4036 41.2652C49.4036 42.1052 49.5703 42.8385 49.9036 43.4652C50.2369 44.0785 50.6836 44.5518 51.2436 44.8852C51.8036 45.2052 52.4236 45.3652 53.1036 45.3652C53.7836 45.3652 54.4036 45.2052 54.9636 44.8852C55.5369 44.5518 55.9903 44.0785 56.3236 43.4652C56.6569 42.8385 56.8236 42.1118 56.8236 41.2852ZM74.9192 35.6252C75.7726 35.6252 76.5326 35.8052 77.1992 36.1652C77.8659 36.5118 78.3926 37.0385 78.7792 37.7452C79.1659 38.4518 79.3592 39.3118 79.3592 40.3252V46.7852H77.5592V40.5852C77.5592 39.4918 77.2859 38.6585 76.7392 38.0852C76.2059 37.4985 75.4792 37.2052 74.5592 37.2052C73.6126 37.2052 72.8592 37.5118 72.2992 38.1252C71.7392 38.7252 71.4592 39.5985 71.4592 40.7452V46.7852H69.6592V40.5852C69.6592 39.4918 69.3859 38.6585 68.8392 38.0852C68.3059 37.4985 67.5792 37.2052 66.6592 37.2052C65.7126 37.2052 64.9592 37.5118 64.3992 38.1252C63.8392 38.7252 63.5592 39.5985 63.5592 40.7452V46.7852H61.7392V35.8252H63.5592V37.4052C63.9192 36.8318 64.3992 36.3918 64.9992 36.0852C65.6126 35.7785 66.2859 35.6252 67.0192 35.6252C67.9392 35.6252 68.7526 35.8318 69.4592 36.2452C70.1659 36.6585 70.6926 37.2652 71.0392 38.0652C71.3459 37.2918 71.8526 36.6918 72.5592 36.2652C73.2659 35.8385 74.0526 35.6252 74.9192 35.6252Z" fill="white"/>
<path d="M6.80947 7.85062L27.2165 11.7944L13.5963 13.7852L13.5975 27.4955L6.80947 7.85062Z" fill="#1649FF"/>
</svg>
