
<svg width="99" height="72" viewBox="0 0 99 72" fill="none" xmlns="http://www.w3.org/2000/svg">
<rect x="20" y="33" width="79" height="34" rx="12" fill="#FF4400"/>
<path d="M43.26 48.06C43.028 47.572 42.692 47.196 42.252 46.932C41.812 46.66 41.3 46.524 40.716 46.524C40.132 46.524 39.604 46.66 39.132 46.932C38.668 47.196 38.3 47.58 38.028 48.084C37.764 48.58 37.632 49.156 37.632 49.812C37.632 50.468 37.764 51.044 38.028 51.54C38.3 52.036 38.668 52.42 39.132 52.692C39.604 52.956 40.132 53.088 40.716 53.088C41.532 53.088 42.204 52.844 42.732 52.356C43.26 51.868 43.568 51.208 43.656 50.376H40.32V49.488H44.82V50.328C44.756 51.016 44.54 51.648 44.172 52.224C43.804 52.792 43.32 53.244 42.72 53.58C42.12 53.908 41.452 54.072 40.716 54.072C39.94 54.072 39.232 53.892 38.592 53.532C37.952 53.164 37.444 52.656 37.068 52.008C36.7 51.36 36.516 50.628 36.516 49.812C36.516 48.996 36.7 48.264 37.068 47.616C37.444 46.96 37.952 46.452 38.592 46.092C39.232 45.724 39.94 45.54 40.716 45.54C41.604 45.54 42.388 45.76 43.068 46.2C43.756 46.64 44.256 47.26 44.568 48.06H43.26ZM46.8278 46.356C46.6198 46.356 46.4438 46.284 46.2998 46.14C46.1558 45.996 46.0838 45.82 46.0838 45.612C46.0838 45.404 46.1558 45.228 46.2998 45.084C46.4438 44.94 46.6198 44.868 46.8278 44.868C47.0278 44.868 47.1958 44.94 47.3318 45.084C47.4758 45.228 47.5478 45.404 47.5478 45.612C47.5478 45.82 47.4758 45.996 47.3318 46.14C47.1958 46.284 47.0278 46.356 46.8278 46.356ZM47.3558 47.424V54H46.2638V47.424H47.3558ZM50.309 48.492C50.501 48.116 50.773 47.824 51.125 47.616C51.485 47.408 51.921 47.304 52.433 47.304V48.432H52.145C50.921 48.432 50.309 49.096 50.309 50.424V54H49.217V47.424H50.309V48.492ZM54.2575 46.356C54.0495 46.356 53.8735 46.284 53.7295 46.14C53.5855 45.996 53.5135 45.82 53.5135 45.612C53.5135 45.404 53.5855 45.228 53.7295 45.084C53.8735 44.94 54.0495 44.868 54.2575 44.868C54.4575 44.868 54.6255 44.94 54.7615 45.084C54.9055 45.228 54.9775 45.404 54.9775 45.612C54.9775 45.82 54.9055 45.996 54.7615 46.14C54.6255 46.284 54.4575 46.356 54.2575 46.356ZM54.7855 47.424V54H53.6935V47.424H54.7855ZM60.9379 48.492C61.1299 48.116 61.4019 47.824 61.7539 47.616C62.1139 47.408 62.5499 47.304 63.0619 47.304V48.432H62.7739C61.5499 48.432 60.9379 49.096 60.9379 50.424V54H59.8459V47.424H60.9379V48.492ZM63.9144 50.688C63.9144 50.016 64.0504 49.428 64.3224 48.924C64.5944 48.412 64.9664 48.016 65.4384 47.736C65.9184 47.456 66.4504 47.316 67.0344 47.316C67.6104 47.316 68.1104 47.44 68.5344 47.688C68.9584 47.936 69.2744 48.248 69.4824 48.624V47.424H70.5864V54H69.4824V52.776C69.2664 53.16 68.9424 53.48 68.5104 53.736C68.0864 53.984 67.5904 54.108 67.0224 54.108C66.4384 54.108 65.9104 53.964 65.4384 53.676C64.9664 53.388 64.5944 52.984 64.3224 52.464C64.0504 51.944 63.9144 51.352 63.9144 50.688ZM69.4824 50.7C69.4824 50.204 69.3824 49.772 69.1824 49.404C68.9824 49.036 68.7104 48.756 68.3664 48.564C68.0304 48.364 67.6584 48.264 67.2504 48.264C66.8424 48.264 66.4704 48.36 66.1344 48.552C65.7984 48.744 65.5304 49.024 65.3304 49.392C65.1304 49.76 65.0304 50.192 65.0304 50.688C65.0304 51.192 65.1304 51.632 65.3304 52.008C65.5304 52.376 65.7984 52.66 66.1344 52.86C66.4704 53.052 66.8424 53.148 67.2504 53.148C67.6584 53.148 68.0304 53.052 68.3664 52.86C68.7104 52.66 68.9824 52.376 69.1824 52.008C69.3824 51.632 69.4824 51.196 69.4824 50.7ZM73.0198 46.356C72.8118 46.356 72.6358 46.284 72.4918 46.14C72.3558 45.996 72.2878 45.82 72.2878 45.612C72.2878 45.404 72.3558 45.228 72.4918 45.084C72.6358 44.94 72.8118 44.868 73.0198 44.868C73.2278 44.868 73.3998 44.94 73.5358 45.084C73.6798 45.228 73.7518 45.404 73.7518 45.612C73.7518 45.82 73.6798 45.996 73.5358 46.14C73.3998 46.284 73.2278 46.356 73.0198 46.356ZM73.5598 55.428C73.5598 56.012 73.4118 56.44 73.1158 56.712C72.8198 56.984 72.3878 57.12 71.8198 57.12H71.1838V56.196H71.6398C71.9438 56.196 72.1558 56.136 72.2758 56.016C72.4038 55.896 72.4678 55.692 72.4678 55.404V47.424H73.5598V55.428ZM75.0004 50.688C75.0004 50.016 75.1364 49.428 75.4084 48.924C75.6804 48.412 76.0524 48.016 76.5244 47.736C77.0044 47.456 77.5364 47.316 78.1204 47.316C78.6964 47.316 79.1964 47.44 79.6204 47.688C80.0444 47.936 80.3604 48.248 80.5684 48.624V47.424H81.6724V54H80.5684V52.776C80.3524 53.16 80.0284 53.48 79.5964 53.736C79.1724 53.984 78.6764 54.108 78.1084 54.108C77.5244 54.108 76.9964 53.964 76.5244 53.676C76.0524 53.388 75.6804 52.984 75.4084 52.464C75.1364 51.944 75.0004 51.352 75.0004 50.688ZM80.5684 50.7C80.5684 50.204 80.4684 49.772 80.2684 49.404C80.0684 49.036 79.7964 48.756 79.4524 48.564C79.1164 48.364 78.7444 48.264 78.3364 48.264C77.9284 48.264 77.5564 48.36 77.2204 48.552C76.8844 48.744 76.6164 49.024 76.4164 49.392C76.2164 49.76 76.1164 50.192 76.1164 50.688C76.1164 51.192 76.2164 51.632 76.4164 52.008C76.6164 52.376 76.8844 52.66 77.2204 52.86C77.5564 53.052 77.9284 53.148 78.3364 53.148C78.7444 53.148 79.1164 53.052 79.4524 52.86C79.7964 52.66 80.0684 52.376 80.2684 52.008C80.4684 51.632 80.5684 51.196 80.5684 50.7Z" fill="white"/>
<path d="M3.85863 71.3259L14.0704 53.2228L11.6391 66.7713L24.6422 71.118L3.85863 71.3259Z" fill="#FF4400"/>
</svg>
